<?xml version="1.0" standalone="no"?>
<!DOCTYPE svg PUBLIC "-//W3C//DTD SVG 20010904//EN"
 "http://www.w3.org/TR/2001/REC-SVG-20010904/DTD/svg10.dtd">
<svg version="1.0" xmlns="http://www.w3.org/2000/svg"
 width="512.000000pt" height="512.000000pt" viewBox="0 0 512.000000 512.000000"
 preserveAspectRatio="xMidYMid meet">
<defs>
    <linearGradient id="lgrad" x1="0%" y1="50%" x2="100%" y2="50%" >
        <stop offset="0%" style="stop-color:rgb(207,10,181);stop-opacity:1.00" />
        <stop offset="50%" style="stop-color:rgb(2,107,120);stop-opacity:1.00" />
        <stop offset="100%" style="stop-color:rgb(12,71,207);stop-opacity:1.00" />
    </linearGradient>
</defs>

<g transform="translate(0.000000,512.000000) scale(0.100000,-0.100000)"
fill="" stroke="none" >
<path fill="url(#lgrad)" d="M3045 5075 c-181 -74 -174 -64 -150 -190 l16 -86 -64 -69 c-35 -38
-74 -89 -88 -114 -24 -46 -24 -46 -79 -46 -65 -1 -138 -14 -151 -27 -5 -5 -19
-76 -31 -157 -26 -175 -29 -169 96 -213 l79 -28 14 -55 c7 -30 31 -91 52 -135
l39 -79 -39 -79 c-22 -43 -39 -88 -37 -100 3 -20 54 -67 182 -163 70 -53 75
-52 166 22 35 30 69 54 75 54 5 0 31 -7 57 -15 26 -7 86 -17 133 -21 l86 -7
52 -76 c29 -42 61 -77 71 -79 32 -7 287 99 298 123 6 14 4 50 -6 110 l-16 89
47 45 c25 25 66 76 89 112 l43 66 92 6 c60 4 97 11 106 20 9 9 23 73 36 160
26 174 28 169 -93 211 -78 28 -80 29 -90 70 -13 51 -54 151 -79 191 l-18 30
39 78 c51 103 49 119 -27 180 -131 106 -166 130 -189 130 -15 0 -50 -22 -91
-57 -36 -31 -70 -56 -75 -56 -5 0 -34 6 -64 14 -30 8 -91 18 -136 22 l-81 7
-49 72 c-46 68 -65 86 -93 85 -7 -1 -61 -21 -122 -45z m418 -525 c118 -44 187
-141 195 -271 4 -66 1 -84 -20 -131 -33 -71 -75 -118 -140 -154 -48 -26 -62
-29 -143 -29 -81 0 -95 3 -144 30 -181 100 -216 339 -70 485 85 85 209 112
322 70z"/>
<path fill="url(#lgrad)" d="M4448 3910 c-10 -7 -19 -30 -23 -64 -7 -50 -9 -54 -48 -74 -23 -12
-54 -32 -69 -44 -25 -20 -32 -21 -78 -10 -27 6 -56 9 -63 6 -18 -6 -87 -152
-81 -168 3 -7 22 -26 44 -42 38 -29 38 -29 42 -109 l4 -80 -38 -42 c-21 -24
-38 -45 -38 -49 0 -17 87 -144 103 -149 10 -4 39 1 65 10 l47 16 75 -39 c71
-37 75 -40 86 -86 7 -26 15 -50 18 -53 7 -7 161 -4 181 3 8 3 17 22 20 42 12
72 15 81 35 87 11 4 41 22 67 42 46 35 47 35 100 24 29 -7 57 -9 63 -6 14 8
80 140 80 159 0 8 -17 28 -38 45 -39 30 -39 31 -46 118 l-6 87 35 36 c19 20
35 41 35 48 0 22 -90 152 -105 152 -9 0 -32 -7 -52 -15 -46 -19 -59 -19 -91 3
-15 10 -45 26 -67 34 -36 14 -41 21 -55 69 l-16 54 -84 2 c-47 2 -93 -2 -102
-7z m179 -325 c50 -21 72 -42 94 -90 24 -51 23 -89 0 -141 -28 -61 -80 -97
-149 -102 -50 -3 -63 0 -103 26 -176 113 -35 387 158 307z"/>
<path fill="url(#lgrad)" d="M1475 3601 c-22 -10 -48 -32 -57 -49 -13 -22 -88 -335 -88 -367 0 -3
-6 -5 -12 -5 -22 0 -221 -95 -283 -134 -33 -22 -92 -63 -131 -92 l-71 -53
-164 54 c-175 58 -205 63 -247 41 -44 -23 -63 -50 -206 -301 -184 -320 -185
-298 32 -491 97 -86 122 -113 118 -129 -3 -11 -10 -77 -16 -147 -11 -118 -4
-284 16 -379 4 -22 -8 -37 -103 -121 -160 -142 -174 -159 -180 -210 -6 -53
-10 -44 150 -323 126 -221 145 -248 189 -271 43 -22 74 -17 247 41 l163 54 77
-58 c103 -78 193 -131 309 -181 53 -23 101 -46 105 -50 5 -4 24 -80 43 -169
37 -177 49 -209 91 -237 26 -17 53 -19 318 -22 403 -4 393 -10 444 243 41 201
40 195 54 195 20 0 199 84 267 125 35 21 98 65 140 97 l77 57 164 -54 c90 -30
176 -55 192 -55 39 0 82 24 110 62 41 55 269 458 280 494 21 68 0 101 -149
236 l-135 121 6 38 c22 127 22 371 0 498 l-6 37 131 118 c140 126 166 163 156
224 -7 43 -268 499 -306 534 -52 48 -84 47 -264 -12 -88 -29 -166 -54 -171
-56 -6 -3 -46 23 -89 56 -95 73 -224 147 -331 191 -44 18 -82 34 -83 35 -2 1
-19 74 -37 161 -38 182 -44 200 -76 230 -44 40 -70 43 -357 43 -248 0 -281 -2
-317 -19z m447 -1192 c75 -16 192 -72 252 -121 108 -88 186 -211 217 -338 17
-71 17 -210 0 -280 -84 -342 -432 -544 -769 -447 -162 47 -298 160 -371 308
-111 225 -89 456 62 655 78 103 208 188 334 218 71 18 204 20 275 5z"/>
</g>
</svg>
