<?xml version="1.0" standalone="no"?>
<!DOCTYPE svg PUBLIC "-//W3C//DTD SVG 20010904//EN"
 "http://www.w3.org/TR/2001/REC-SVG-20010904/DTD/svg10.dtd">
<svg version="1.0" xmlns="http://www.w3.org/2000/svg"
 width="1017.000000pt" height="742.000000pt" viewBox="0 0 1017.000000 742.000000"
 preserveAspectRatio="xMidYMid meet">

<g transform="translate(0.000000,742.000000) scale(0.100000,-0.100000)"
fill="#000000" stroke="none">
<path d="M960 6776 c0 -2 8 -10 18 -17 15 -13 16 -12 3 4 -13 16 -21 21 -21
13z"/>
<path d="M943 6708 c-6 -7 -9 -21 -8 -30 3 -16 -6 -21 -32 -17 -5 1 -7 6 -5
12 2 6 -3 6 -12 -2 -10 -8 -16 -9 -21 -1 -4 6 -14 9 -23 8 -10 -2 -16 3 -14
10 1 8 -2 11 -8 7 -8 -5 -8 -11 -1 -19 6 -7 10 -15 8 -17 -1 -2 2 -1 7 3 17
14 22 9 21 -22 0 -32 -14 -43 -16 -12 0 12 -2 13 -6 3 -3 -8 5 -22 18 -32 33
-26 40 -23 24 8 -14 28 -9 55 6 32 7 -12 9 -11 9 1 1 12 3 11 11 -3 5 -9 7
-23 2 -30 -11 -17 -11 -30 0 -45 7 -8 6 -17 0 -23 -8 -8 -11 -6 -10 7 1 13 -4
18 -16 16 -9 -2 -16 2 -15 9 2 6 -2 13 -8 16 -8 3 -11 -8 -9 -31 2 -20 0 -38
-5 -41 -6 -4 -7 1 -3 11 5 13 3 15 -7 9 -10 -6 -11 -4 -4 6 12 20 14 39 3 39
-5 0 -8 3 -8 8 4 27 -4 53 -19 61 -14 8 -18 5 -19 -12 -2 -17 0 -18 7 -7 5 8
13 11 17 6 12 -12 -28 -38 -42 -26 -7 5 -14 9 -16 7 -2 -1 1 3 8 9 9 8 7 13
-8 22 -11 7 -17 17 -14 22 3 6 2 10 -2 10 -5 0 -8 -31 -8 -70 0 -38 3 -70 8
-70 4 0 5 5 1 12 -5 7 -3 8 6 3 10 -6 11 -2 6 18 -4 16 -1 29 6 33 8 5 9 2 5
-9 -6 -16 -4 -16 24 -1 20 10 28 11 24 3 -5 -7 -4 -10 2 -6 6 4 9 -4 6 -21 -2
-15 -5 -32 -5 -39 -1 -8 -7 -9 -18 -3 -11 6 -22 5 -30 -3 -7 -7 -6 -1 3 13 26
38 20 46 -10 14 -17 -18 -24 -32 -18 -36 7 -5 7 -8 0 -8 -7 0 -10 -190 -9
-582 1 -508 3 -590 17 -639 9 -30 25 -64 36 -73 20 -18 22 -17 70 23 151 126
273 325 331 536 31 111 39 358 16 471 -22 110 -64 237 -84 252 -9 7 -11 12 -4
12 8 0 6 11 -5 35 -12 25 -22 34 -32 30 -12 -5 -13 -3 -4 6 9 9 7 22 -10 55
-18 37 -25 44 -48 42 -22 -2 -26 -5 -17 -15 5 -7 8 -19 5 -27 -3 -7 -1 -18 5
-24 6 -6 6 -12 -1 -17 -7 -3 -10 -1 -9 6 2 7 -6 13 -17 13 -14 0 -19 -5 -17
-19 2 -15 1 -17 -7 -6 -5 8 -15 12 -22 9 -10 -4 -14 4 -15 25 l-1 30 13 -24
c7 -13 13 -18 14 -10 0 8 3 11 7 8 3 -4 12 1 20 11 12 16 13 15 7 -3 -6 -16
-4 -18 6 -8 10 9 9 16 -4 34 -9 13 -16 18 -16 11 0 -7 -4 -11 -9 -8 -13 8 -7
36 10 47 8 5 9 9 3 9 -6 0 -16 -6 -21 -12z m93 -50 c4 -7 3 -8 -4 -4 -14 8
-12 -20 3 -44 7 -12 6 -13 -6 -3 -8 6 -15 23 -17 37 -2 27 11 35 24 14z m-72
-10 c-3 -4 -12 -8 -20 -8 -8 0 -13 4 -10 8 3 5 12 9 20 9 8 0 13 -4 10 -9z
m-219 -7 c3 -5 2 -12 -3 -15 -5 -3 -9 1 -9 9 0 17 3 19 12 6z m245 -73 c0 -19
-16 -5 -17 14 -2 18 0 20 7 8 5 -8 10 -18 10 -22z m35 -27 c3 -5 2 -12 -3 -15
-5 -3 -9 1 -9 9 0 17 3 19 12 6z m-250 -40 c-9 -8 -36 -10 -30 -2 2 4 11 8 20
8 8 0 13 -3 10 -6z"/>
<path d="M973 6705 c-9 -10 -6 -12 18 -11 16 0 29 5 29 9 0 5 -6 7 -14 4 -8
-3 -16 -2 -18 3 -2 4 -8 2 -15 -5z"/>
<path d="M763 6675 c0 -8 4 -12 9 -9 5 3 6 10 3 15 -9 13 -12 11 -12 -6z"/>
<path d="M880 6609 c0 -5 5 -7 10 -4 6 3 10 8 10 11 0 2 -4 4 -10 4 -5 0 -10
-5 -10 -11z"/>
<path d="M784 6565 c-2 -26 11 -34 19 -12 5 14 -2 37 -12 37 -3 0 -7 -11 -7
-25z"/>
<path d="M206 6047 c3 -10 9 -15 12 -12 3 3 0 11 -7 18 -10 9 -11 8 -5 -6z"/>
<path d="M1715 5922 c-22 -8 -76 -21 -120 -31 -91 -20 -102 -37 -39 -58 22 -7
51 -23 64 -35 22 -21 22 -23 18 -233 -3 -155 -7 -217 -17 -229 -7 -8 -31 -19
-54 -23 -35 -7 -42 -12 -42 -33 l0 -24 168 -1 167 0 0 26 c0 23 -5 27 -40 33
-24 4 -43 14 -50 25 -6 12 -10 103 -10 224 0 231 -4 219 84 258 96 42 187 9
218 -80 9 -24 13 -94 12 -215 0 -174 -1 -179 -23 -197 -13 -11 -36 -19 -51
-19 -29 0 -44 -19 -34 -44 4 -11 39 -13 169 -13 156 0 164 0 169 20 7 29 2 33
-43 41 -24 4 -44 14 -50 25 -6 10 -11 111 -12 227 l-1 209 31 22 c62 43 158
47 215 10 13 -9 32 -33 42 -54 17 -33 19 -61 19 -221 0 -181 0 -184 -24 -203
-13 -10 -34 -19 -47 -19 -20 0 -24 -5 -24 -27 l0 -28 165 0 c148 0 166 2 171
17 8 26 -1 35 -45 42 -66 10 -72 28 -65 186 13 281 -32 398 -165 430 -42 10
-59 9 -103 -4 -46 -14 -116 -50 -170 -88 -15 -11 -22 -7 -50 26 -32 39 -96 75
-134 76 -41 0 -122 -31 -183 -70 -67 -43 -68 -43 -73 25 l-3 40 -40 -13z"/>
<path d="M3160 5930 c-73 -16 -165 -67 -209 -116 -86 -98 -103 -266 -39 -402
61 -129 218 -196 368 -158 185 47 275 165 274 357 0 77 -3 93 -32 152 -54 109
-136 162 -262 172 -30 2 -75 0 -100 -5z m105 -79 c81 -37 129 -118 144 -242
10 -78 0 -173 -24 -220 -26 -49 -72 -74 -141 -74 -49 0 -68 5 -102 28 -81 53
-124 154 -126 292 0 77 3 97 24 140 45 90 132 119 225 76z"/>
<path d="M3925 5924 c-16 -7 -68 -20 -115 -30 -85 -17 -123 -36 -105 -52 6 -5
31 -17 58 -26 26 -10 52 -27 58 -39 13 -22 7 -399 -6 -429 -7 -17 -14 -20 -67
-32 -22 -5 -28 -12 -28 -34 l0 -27 175 0 175 0 0 27 c0 22 -6 29 -27 34 -73
15 -73 16 -73 111 0 49 -3 125 -6 170 -12 159 6 197 107 224 61 16 113 5 155
-34 30 -27 36 -42 45 -99 14 -87 8 -333 -8 -349 -6 -6 -26 -14 -45 -18 -27 -6
-33 -12 -36 -37 l-3 -29 168 0 c100 0 171 4 175 10 20 26 7 45 -37 56 -24 6
-49 17 -55 24 -5 6 -12 98 -16 206 -4 131 -11 210 -21 243 -35 110 -145 167
-255 131 -29 -9 -79 -34 -110 -56 -32 -21 -61 -39 -64 -39 -4 0 -4 19 -1 43 8
56 0 67 -38 51z"/>
<path d="M4893 5925 c-156 -43 -235 -144 -220 -277 11 -86 49 -139 143 -194
17 -10 13 -15 -43 -50 -35 -22 -63 -46 -63 -54 0 -28 37 -76 69 -90 17 -7 31
-15 31 -19 0 -3 -31 -30 -69 -59 -66 -50 -101 -98 -101 -139 0 -36 50 -118 89
-145 43 -31 135 -58 193 -58 150 0 320 96 377 213 30 61 29 152 -2 197 -42 63
-97 80 -310 95 -68 5 -93 11 -108 26 -39 39 -13 67 78 84 176 34 259 127 251
281 l-3 73 43 -1 c51 -1 79 21 88 69 8 43 2 49 -28 29 -32 -22 -122 -20 -194
4 -80 28 -157 33 -221 15z m90 -59 c109 -45 142 -219 61 -315 -66 -79 -202
-28 -233 86 -44 159 48 281 172 229z m122 -661 c73 -20 100 -53 100 -120 0
-65 -22 -99 -86 -135 -37 -21 -57 -25 -129 -25 -63 1 -94 6 -120 19 -86 45
-123 115 -96 179 16 40 74 90 113 98 42 8 162 -1 218 -16z"/>
<path d="M5740 5930 c-73 -16 -165 -67 -209 -116 -86 -98 -103 -266 -39 -402
61 -129 218 -196 368 -158 185 47 275 165 274 357 0 77 -3 93 -32 152 -54 109
-136 162 -262 172 -30 2 -75 0 -100 -5z m105 -79 c81 -37 129 -118 144 -242
10 -78 0 -173 -24 -220 -26 -49 -72 -74 -141 -74 -49 0 -68 5 -102 28 -81 53
-124 154 -126 292 0 77 3 97 24 140 45 90 132 119 225 76z"/>
<path d="M5306 4155 c-47 -16 -100 -66 -129 -120 -18 -34 -22 -57 -22 -145 0
-89 4 -111 22 -146 97 -182 358 -155 418 44 4 13 2 22 -4 22 -5 0 -13 -16 -17
-36 -19 -104 -177 -166 -290 -115 -65 30 -103 92 -117 193 l-6 38 222 2 222 3
-3 49 c-11 162 -152 263 -296 211z m173 -26 c63 -38 94 -88 106 -172 l7 -47
-213 2 -214 3 3 25 c9 78 54 152 117 191 43 27 148 26 194 -2z"/>
<path d="M6305 4157 c-56 -22 -73 -37 -107 -88 l-33 -52 -6 74 c-3 41 -5 -88
-5 -286 0 -238 2 -304 6 -195 l5 165 19 -35 c26 -49 45 -69 88 -91 127 -65
264 -4 308 138 11 36 20 86 20 111 0 66 -28 155 -61 195 -54 66 -157 94 -234
64z m165 -26 c132 -70 152 -334 33 -442 -65 -60 -171 -66 -245 -13 -65 46 -93
110 -93 214 0 73 4 93 29 143 39 81 95 117 181 117 40 0 72 -6 95 -19z"/>
<path d="M6855 4158 c-51 -18 -86 -49 -106 -92 l-19 -41 0 68 c0 38 -4 67 -10
67 -6 0 -10 -95 -10 -265 0 -170 4 -265 10 -265 6 0 10 64 10 173 0 178 8 232
42 280 24 34 87 67 128 67 16 0 30 5 30 10 0 13 -36 12 -75 -2z"/>
<path d="M7120 4157 c-58 -19 -116 -85 -139 -162 -26 -85 -26 -126 0 -211 16
-51 31 -78 59 -105 83 -79 237 -73 317 13 33 35 69 129 44 114 -5 -3 -12 -18
-16 -33 -20 -84 -107 -138 -210 -131 -110 7 -177 77 -192 197 l-6 51 219 2
219 3 -1 40 c-4 168 -141 271 -294 222z m175 -30 c52 -29 96 -102 103 -167 l5
-50 -213 0 -212 0 7 47 c7 49 42 119 73 145 60 53 167 64 237 25z"/>
<path d="M7612 4157 c-52 -16 -92 -69 -92 -121 0 -78 32 -101 209 -147 110
-29 151 -63 151 -124 0 -76 -70 -125 -178 -125 -102 0 -179 57 -185 139 -1 17
-6 31 -11 31 -15 0 1 -82 22 -109 49 -67 145 -94 244 -71 97 24 147 104 115
183 -19 43 -62 67 -173 97 -129 35 -161 52 -173 95 -23 86 38 145 152 145 98
0 141 -27 172 -106 l15 -39 -5 40 c-2 22 -13 51 -23 65 -38 50 -158 74 -240
47z"/>
<path d="M8115 4157 c-81 -33 -109 -74 -98 -141 8 -50 48 -81 136 -106 163
-46 176 -51 197 -77 31 -39 35 -69 15 -113 -21 -47 -67 -72 -143 -78 -110 -9
-184 35 -208 125 -12 44 -13 45 -13 15 -1 -56 23 -98 76 -129 41 -24 58 -28
123 -28 122 1 190 50 190 139 0 72 -42 112 -145 136 -87 21 -149 42 -177 62
-55 38 -42 133 22 171 35 21 156 25 192 6 43 -22 68 -53 74 -91 7 -38 24 -54
24 -20 -1 41 -38 99 -75 117 -48 22 -150 29 -190 12z"/>
<path d="M5670 4151 c0 -5 24 -40 53 -77 29 -38 69 -92 89 -120 l37 -50 -100
-128 c-87 -114 -109 -146 -95 -146 2 0 48 59 102 130 54 72 101 130 104 129 3
0 21 -21 41 -47 133 -176 162 -212 171 -212 6 0 -5 20 -24 44 -27 36 -137 180
-169 222 -5 6 27 57 81 129 50 65 90 123 90 129 0 13 -27 -19 -117 -141 -37
-51 -70 -92 -73 -92 -3 0 -15 14 -28 32 -68 94 -154 207 -158 207 -2 0 -4 -4
-4 -9z"/>
<path d="M8237 3273 c-4 -3 -7 -179 -7 -390 0 -324 -2 -384 -14 -389 -8 -3
-47 13 -87 37 -63 37 -76 41 -100 32 -35 -14 -444 -249 -486 -280 l-33 -24 0
-303 c0 -231 3 -306 13 -314 41 -34 503 -292 524 -292 22 0 474 252 516 288
16 14 17 62 17 732 0 670 -1 718 -17 732 -20 18 -302 178 -313 178 -4 0 -10
-3 -13 -7z m-102 -1160 c44 -25 83 -51 88 -57 4 -6 6 -54 5 -106 l-3 -95 -88
-53 -89 -53 -66 37 c-125 69 -119 60 -120 166 -1 51 2 98 6 104 9 13 163 104
177 104 6 0 46 -21 90 -47z"/>
<path d="M5155 2440 c-132 -77 -248 -149 -257 -161 -16 -19 -18 -54 -18 -394
0 -205 3 -380 6 -389 3 -9 14 -16 24 -16 19 0 311 166 322 184 4 6 8 97 8 202
0 136 4 195 13 207 16 22 147 97 169 97 18 0 130 -61 161 -88 15 -13 17 -37
17 -209 0 -188 1 -195 23 -216 34 -34 295 -179 315 -175 16 3 17 32 20 383 1
209 0 390 -3 402 -6 26 -499 313 -536 312 -13 0 -132 -63 -264 -139z"/>
<path d="M9170 2474 c-102 -58 -217 -125 -257 -148 -40 -22 -77 -51 -83 -64
-11 -24 -14 -549 -4 -589 5 -17 72 -60 260 -168 140 -80 262 -145 272 -145 20
0 283 141 315 168 10 9 16 22 15 29 -2 7 -115 77 -253 156 l-250 144 0 108 0
109 45 26 c25 14 64 37 87 49 l41 24 84 -48 c45 -26 85 -50 88 -52 3 -3 7 -44
10 -91 4 -69 8 -87 21 -90 18 -3 308 161 327 186 7 10 12 47 12 97 0 50 -5 87
-12 97 -14 17 -480 291 -514 302 -14 4 -73 -24 -204 -100z"/>
<path d="M6229 2257 c6 -8 7 -18 3 -22 -4 -5 -2 -5 5 -1 14 8 6 36 -9 36 -7 0
-6 -5 1 -13z"/>
<path d="M7239 2249 c-9 -13 -44 -77 -79 -141 -35 -65 -67 -118 -71 -118 -5 0
-15 12 -23 27 -12 24 -14 0 -14 -220 0 -196 3 -247 13 -247 15 0 150 75 178
98 24 21 21 46 -10 100 -24 43 -25 45 -5 28 17 -15 22 -16 23 -5 0 8 3 34 5
59 8 86 11 405 4 424 -6 17 -7 16 -21 -5z"/>
<path d="M6332 1863 c-34 -60 -75 -131 -92 -159 l-30 -51 256 -148 c140 -81
258 -144 261 -141 3 3 -41 90 -97 193 -142 259 -188 343 -207 381 -9 17 -20
32 -23 32 -4 0 -34 -48 -68 -107z"/>
</g>
</svg>
