<?xml version="1.0" standalone="no"?>
<!DOCTYPE svg PUBLIC "-//W3C//DTD SVG 20010904//EN"
 "http://www.w3.org/TR/2001/REC-SVG-20010904/DTD/svg10.dtd">
<svg version="1.0" xmlns="http://www.w3.org/2000/svg"
 width="1366.000000pt" height="768.000000pt" viewBox="0 0 1366.000000 768.000000"
 preserveAspectRatio="xMidYMid meet">

<g transform="translate(0.000000,768.000000) scale(0.100000,-0.100000)"
fill="#000000" stroke="none">
<path d="M0 3840 l0 -3840 6830 0 6830 0 0 3840 0 3840 -6830 0 -6830 0 0
-3840z m7350 1029 c91 -20 155 -97 183 -221 16 -74 15 -276 -2 -319 -7 -17
-10 -19 -10 -7 -1 10 -12 25 -26 34 -14 9 -25 23 -25 31 0 8 -4 12 -8 9 -5 -3
-10 27 -11 67 -2 104 -11 155 -36 213 -42 96 -98 114 -218 71 -74 -27 -120
-54 -231 -134 -44 -31 -76 -52 -72 -45 5 8 -2 12 -23 13 -17 1 -37 2 -43 3 -7
1 -19 -2 -25 -7 -8 -6 -13 -6 -13 0 0 11 -47 10 -57 -2 -5 -4 -2 -5 6 0 10 6
12 4 7 -4 -6 -8 -12 -9 -20 -2 -7 6 -15 8 -18 5 -3 -3 -39 20 -79 50 -73 55
-163 104 -241 132 -133 47 -208 -24 -223 -211 -6 -84 0 -148 31 -329 5 -26 4
-37 -3 -33 -6 4 -10 -3 -8 -16 0 -12 -5 -38 -12 -58 -10 -26 -11 -43 -3 -65
l10 -29 -20 24 c-11 13 -20 32 -20 42 0 25 -16 24 -92 -5 -216 -81 -348 -187
-348 -278 0 -97 144 -215 356 -291 l72 -26 27 77 c45 127 54 143 76 131 11 -5
17 -14 14 -20 -4 -5 -1 -9 5 -9 7 0 10 -6 7 -14 -3 -7 -1 -18 5 -24 8 -8 6
-28 -6 -70 -18 -58 -19 -59 -104 -110 l-85 -50 -71 25 c-139 50 -252 118 -324
197 -177 192 -59 407 298 543 47 18 95 32 108 33 27 0 27 -9 1 125 -26 135
-23 288 6 379 24 72 90 149 142 167 126 41 341 -43 518 -204 l59 -54 71 61
c127 112 243 178 349 201 78 17 67 17 126 4z m-482 -848 c9 -5 -30 -47 -125
-133 -76 -69 -141 -124 -145 -121 -16 9 -8 107 13 150 45 92 180 147 257 104z
m137 -287 c-29 -75 -120 -134 -207 -134 -22 0 -22 1 7 26 35 30 80 69 155 137
62 57 75 49 45 -29z m958 -21 c-10 -29 -84 -102 -147 -145 -67 -46 -154 -87
-250 -118 -55 -18 -66 -25 -60 -39 24 -57 43 -262 33 -360 -12 -119 -36 -178
-94 -237 -54 -54 -80 -64 -169 -64 -104 1 -256 76 -404 200 -83 70 -65 72
-177 -22 -109 -92 -311 -186 -338 -159 -8 8 -6 11 5 11 9 0 25 10 35 23 10 12
27 23 38 25 11 2 45 20 75 39 30 20 60 36 67 36 7 0 13 4 13 8 0 4 12 14 28
22 15 8 42 22 60 32 18 9 30 21 27 26 -4 5 2 6 11 2 10 -4 20 0 26 10 5 10 16
17 23 17 8 0 15 5 15 12 0 6 3 8 6 5 4 -3 18 3 32 13 13 11 31 20 39 20 8 0
56 -30 106 -66 136 -97 224 -138 309 -142 65 -4 71 -3 99 24 20 19 37 52 51
98 21 70 21 106 3 388 -3 40 0 47 18 53 12 4 25 8 30 10 4 1 12 3 18 4 5 0 8
5 5 10 -5 8 29 25 47 22 4 -1 7 6 7 15 0 8 4 13 9 9 5 -3 12 -1 16 5 4 6 11 8
16 5 5 -4 9 -1 9 6 0 7 3 10 6 7 3 -4 14 1 24 10 35 32 48 41 52 36 3 -2 22 9
43 26 21 16 42 31 46 31 5 1 12 2 17 3 4 0 23 13 42 27 19 15 45 30 58 34 12
3 22 11 22 17 0 6 3 8 6 5 4 -3 16 0 28 8 26 19 27 19 19 -2z"/>
</g>
</svg>
